<?xml version="1.0" encoding="UTF-8"?>
<svg xmlns="http://www.w3.org/2000/svg" id="Layer_1" data-name="Layer 1" viewBox="0 0 894.2 150">
  <defs>
    <style>.cls-1{fill:#3a2e8d;}</style>
  </defs>
  <path class="cls-1" d="M225.59,87.44a31.77,31.77,0,0,1-.55,5.74,17,17,0,0,1-1.9,5.32,9.19,9.19,0,0,1-3.85,3.58,16.12,16.12,0,0,1-7.42,1.43,16.56,16.56,0,0,1-8-1.71,13.31,13.31,0,0,1-6.9-9.43l-.31-2H182.72L183,93a28.19,28.19,0,0,0,3.84,11.24,25.47,25.47,0,0,0,9.4,9.1c4.07,2.36,9.17,3.56,15.14,3.56,6.74,0,12.25-1.43,16.36-4.24a23.79,23.79,0,0,0,8.88-11,37.53,37.53,0,0,0,2.58-13.82V34.1H225.59Z" transform="translate(0 -0.5)"></path>
  <path class="cls-1" d="M395.77,54.67A22.75,22.75,0,0,0,384,51.39a23.84,23.84,0,0,0-11,2.38,25.31,25.31,0,0,0-7.34,5.47q-1,1.08-1.74,2a23.08,23.08,0,0,0-6.73-6.41A22.66,22.66,0,0,0,345,51.39c-5.29,0-9.64,1.22-12.95,3.64a31.43,31.43,0,0,0-2.54,2V52.33H315.91V116h13.62V78.38c0-4.6,1.29-8,3.94-10.48A13.45,13.45,0,0,1,343,64.19a11.2,11.2,0,0,1,8.64,3.75c2.39,2.59,3.54,6,3.54,10.32V116h13.63V78.38c0-4.6,1.29-8,3.93-10.48a13.48,13.48,0,0,1,9.55-3.71A11.2,11.2,0,0,1,391,67.94c2.38,2.59,3.54,6,3.54,10.32V116h13.63V78A28.07,28.07,0,0,0,404.69,64,25,25,0,0,0,395.77,54.67Z" transform="translate(0 -0.5)"></path>
  <path class="cls-1" d="M531.81,64a24.7,24.7,0,0,0-9.64-9.48,26.23,26.23,0,0,0-12.61-3.17c-5.22,0-9.62,1.11-13.06,3.32a33.36,33.36,0,0,0-4.07,3.07V52.33H478.81V116h13.62V79.67a15.68,15.68,0,0,1,2.08-8.13A14.5,14.5,0,0,1,500,66.12a15.74,15.74,0,0,1,7.77-1.93,13.14,13.14,0,0,1,10.13,4.13c2.65,2.81,3.94,6.49,3.94,11.23V116H535.5V79.32A29.76,29.76,0,0,0,531.81,64Z" transform="translate(0 -0.5)"></path>
  <path class="cls-1" d="M428.75,52.38V88a15.62,15.62,0,0,0,2.08,8.12,14.46,14.46,0,0,0,5.52,5.43,15.71,15.71,0,0,0,7.77,1.93,13.14,13.14,0,0,0,10.13-4.13c2.65-2.82,3.94-6.49,3.94-11.24V52.38h13.62V116H458.2v-2.69a25.45,25.45,0,0,1-4.11,1.74h0l-.27.08-.69.2c-.68.18-1.7.43-3,.65-4.9.87-13.56,1.44-21.4-3a26.22,26.22,0,0,1-6.92-5.77,28.94,28.94,0,0,1-6.7-18.82V52.38Z" transform="translate(0 -0.5)"></path>
  <path class="cls-1" d="M308.79,74.51C308.51,62,302.22,54.9,289.2,52.38a47.66,47.66,0,0,0-28.55,2.83,18.7,18.7,0,0,0-7.21,5.38l-.08.12a18.33,18.33,0,0,0-1.32,1.9,24.07,24.07,0,0,0-1.63,3,11.28,11.28,0,0,0-.67,1.66,14.33,14.33,0,0,0-.87,3.53h13.54c.16-.13.24-.85.33-1.08a7.06,7.06,0,0,1,.75-1.27,11.15,11.15,0,0,1,1.83-1.87,20,20,0,0,1,5.06-3,25.18,25.18,0,0,1,17.95-.39c3.75,1.4,5.24,4.76,5.87,8.32a28.49,28.49,0,0,1,.39,4.9,50.41,50.41,0,0,1-5.21,0c-11.94-.55-23.64.11-34.22,6.21-7.26,4.19-9.38,10.66-8.77,18.3.63,7.91,6.08,11.73,13.34,13.54,12.58,3.14,24.32,1.53,35-7.24,0,.35,0,8.31,0,8.31h14.15S309.05,85.74,308.79,74.51Zm-15,18c-3.44,9.73-15.19,15.77-25.71,13.29-4.48-1.06-7.42-3.39-7.78-8s2.14-8.28,6.89-9.69c5.83-1.74,11.95-1.55,18.72-1.84.53,0,1.81,0,3.08,0,3.18,0,5.54,0,5.54,0A16.68,16.68,0,0,1,293.77,92.53Z" transform="translate(0 -0.5)"></path>
  <path class="cls-1" d="M605.09,74.27c-.29-12.36-6.57-19.4-19.6-21.9a48.11,48.11,0,0,0-28.55,2.8,18.66,18.66,0,0,0-7.2,5.33l-.09.11a19.71,19.71,0,0,0-1.32,1.88,25.23,25.23,0,0,0-1.63,3,11.62,11.62,0,0,0-.67,1.64,14.28,14.28,0,0,0-.86,3.5h13.54c.15-.14.23-.85.33-1.07a6.25,6.25,0,0,1,.75-1.26,11,11,0,0,1,1.82-1.85,20.58,20.58,0,0,1,5.06-3,25.43,25.43,0,0,1,18-.38c3.75,1.38,5.23,4.71,5.86,8.23a26.84,26.84,0,0,1,.39,4.85,50.31,50.31,0,0,1-5.21,0c-11.94-.54-23.64.11-34.22,6.15-7.26,4.14-9.38,10.55-8.77,18.1.63,7.83,6.08,11.61,13.34,13.4,12.58,3.11,24.32,1.52,35-7.16,0,.34,0,8.22,0,8.22h14.15S605.34,85.38,605.09,74.27Zm-15,17.83c-3.44,9.63-15.19,15.61-25.71,13.15-4.48-1-7.42-3.35-7.78-7.88s2.15-8.2,6.9-9.59c5.83-1.72,11.94-1.53,18.71-1.82h3.08c3.18,0,5.54,0,5.54,0A16.09,16.09,0,0,1,590.06,92.1Z" transform="translate(0 -0.5)"></path>
  <path class="cls-1" d="M688.61,75.57A30.55,30.55,0,0,0,686,73.84a23,23,0,0,0,3.73-4c2.26-3.1,3.41-7.45,3.41-12.94a24.78,24.78,0,0,0-2.41-10.43,20.73,20.73,0,0,0-8-8.85c-3.64-2.31-8.54-3.48-14.57-3.48H632.53V116H670c8.71,0,15.42-2.16,19.91-6.42a21.54,21.54,0,0,0,6.9-16.22,22.8,22.8,0,0,0-2.36-10.86A20.43,20.43,0,0,0,688.61,75.57ZM681,100.1c-2.31,1.88-5.72,2.83-10.13,2.83H646.21V81.25H670c5.1,0,8.78,1.16,11,3.45a11.08,11.08,0,0,1,3.26,7.92C684.21,95.9,683.16,98.35,681,100.1Zm-2.12-36.33a9.91,9.91,0,0,1-4.42,3.57,16.14,16.14,0,0,1-6.31,1.24H646.21V47.12H669a13.11,13.11,0,0,1,6.88,1.54,8.94,8.94,0,0,1,3.48,3.79,11.77,11.77,0,0,1,1.13,5.11A10.72,10.72,0,0,1,678.88,63.77Z" transform="translate(0 -0.5)"></path>
  <path class="cls-1" d="M826.5,64a24.7,24.7,0,0,0-9.64-9.48c-.64-.35-1.3-.66-2-1l-.44-.18c-.66-.28-1.32-.53-2-.75h0l-.27-.08h0l-.68-.19c-.49-.14-1-.26-1.47-.37h0c-.5-.11-1-.2-1.49-.28h0c-4.9-.87-13.56-1.44-21.4,3V52.33H773.5V116h13.62V79.67a15.68,15.68,0,0,1,2.08-8.13,14.5,14.5,0,0,1,5.52-5.42,15.74,15.74,0,0,1,7.77-1.93,13.14,13.14,0,0,1,10.13,4.13c2.65,2.81,3.94,6.49,3.94,11.23V116h13.62V79.32C830.18,73.34,829,68.2,826.5,64Z" transform="translate(0 -0.5)"></path>
  <path class="cls-1" d="M877,116.63,850.65,90.74v25.89H837.09V34.1h13.56V80l26-27.16,16.86-.09L862.93,86l31.27,30.65Z" transform="translate(0 -0.5)"></path>
  <path class="cls-1" d="M766.37,74.11c-.28-12.41-6.57-19.48-19.59-22a48,48,0,0,0-28.55,2.81A18.64,18.64,0,0,0,711,60.28l-.08.12a18.06,18.06,0,0,0-1.32,1.88,24.65,24.65,0,0,0-1.63,3,11.89,11.89,0,0,0-.68,1.65,14.41,14.41,0,0,0-.86,3.52H720c.16-.14.24-.86.33-1.08a6.17,6.17,0,0,1,.75-1.26,11,11,0,0,1,1.82-1.86,20.19,20.19,0,0,1,5.07-3,25.29,25.29,0,0,1,17.95-.39c3.75,1.39,5.23,4.73,5.87,8.26a28.26,28.26,0,0,1,.39,4.88A49,49,0,0,1,747,76c-11.94-.54-23.64.11-34.22,6.18-7.27,4.16-9.38,10.59-8.77,18.17.63,7.87,6.08,11.66,13.34,13.46,12.58,3.11,24.32,1.52,35-7.19,0,.34,0,8.25,0,8.25H766.5S766.63,85.27,766.37,74.11Zm-15,17.9c-3.44,9.67-15.2,15.67-25.71,13.2-4.48-1-7.42-3.36-7.79-7.91s2.15-8.23,6.9-9.63c5.83-1.73,11.94-1.54,18.71-1.83h3.09c3.18,0,5.54,0,5.54,0A16.47,16.47,0,0,1,751.35,92Z" transform="translate(0 -0.5)"></path>
  <polygon class="cls-1" points="50.12 75.03 29.95 132.76 30 132.76 30 132.76 17.29 132.76 17.29 17.29 88.58 17.29 94.6 0 94.6 0 0 0 0 150 42.36 150 42.37 150 68.46 75.03 50.12 75.03"></polygon>
  <polygon class="cls-1" points="108.15 0 68.89 115.49 86.86 115.49 87.03 115.49 120.05 17.29 132.71 17.29 132.71 132.76 62.77 132.76 56.99 150 56.95 150 150 150 150 0 108.15 0"></polygon>
</svg>
